<?xml version="1.0" encoding="UTF-8"?>
<svg width="108px" height="30px" viewBox="0 0 108 30" version="1.1" xmlns="http://www.w3.org/2000/svg" xmlns:xlink="http://www.w3.org/1999/xlink">
    <!-- Generator: Sketch 60.1 (88133) - https://sketch.com -->
    <title>Logo/EUML2020/EUMLMYMI/1 - Fond blanc</title>
    <desc>Created with Sketch.</desc>
    <defs>
        <linearGradient x1="98.2147622%" y1="50%" x2="-2.41105796%" y2="50%" id="linearGradient-1">
            <stop stop-color="#00A0E1" offset="0%"></stop>
            <stop stop-color="#009EDF" offset="1%"></stop>
            <stop stop-color="#0381C6" offset="16%"></stop>
            <stop stop-color="#0064AE" offset="33%"></stop>
            <stop stop-color="#004E9B" offset="50%"></stop>
            <stop stop-color="#004694" offset="71%"></stop>
            <stop stop-color="#004492" offset="100%"></stop>
        </linearGradient>
        <linearGradient x1="0%" y1="50%" x2="100%" y2="50%" id="linearGradient-2">
            <stop stop-color="#E0AF00" offset="0%"></stop>
            <stop stop-color="#FFE267" offset="100%"></stop>
        </linearGradient>
    </defs>
    <g id="Logo/EUML2020/EUMLMYMI/1---Fond-blanc" stroke="none" stroke-width="1" fill="none" fill-rule="evenodd">
        <g id="FDJ" transform="translate(0.000000, 7.000000)" fill-rule="nonzero">
            <path d="M8.91428571,21.9961307 L1.04571429,13.900201 C-0.171497502,12.6448763 -0.171497502,10.6127117 1.04571429,9.35738693 L8.91428571,1.26145729 C10.1343571,0.00907480617 12.1094524,0.00907480617 13.3295238,1.26145729 L21.2,9.35738693 C22.4172118,10.6127117 22.4172118,12.6448763 21.2,13.900201 L13.3333333,21.9961307 C12.112824,23.2511223 10.1347951,23.2511223 8.91428571,21.9961307 Z" id="Path" fill="#FFFFFF"></path>
            <path d="M1.61714286,9.94532663 L9.48571429,1.84743719 C9.91767757,1.4023598 10.5039147,1.15226466 11.1152381,1.15226466 C11.7265614,1.15226466 12.3127986,1.4023598 12.7447619,1.84743719 L12.7447619,1.84743719 L20.6133333,9.94532663 C21.0457961,10.3894365 21.2888206,10.9922882 21.2888206,11.6209548 C21.2888206,12.2496213 21.0457961,12.8524731 20.6133333,13.2965829 L20.6133333,13.2965829 L12.7619048,21.3944724 C12.3299415,21.8395498 11.7437043,22.0896449 11.132381,22.0896449 C10.5210576,22.0896449 9.93482043,21.8395498 9.50285714,21.3944724 L9.50285714,21.3944724 L1.63238095,13.2965829 C0.733817904,12.3834712 0.720204706,10.8952759 1.60190476,9.96492462 L1.61714286,9.94532663 Z" id="Path" fill="url(#linearGradient-1)"></path>
            <path d="M17.5352381,9.18688442 C17.4895238,9.04773869 17.52,6.85472362 16.0114286,6.65286432 C15.0209524,6.51371859 14.1180952,7.20944724 13.4285714,8.08939698 L16.4761905,9.58864322 L15.0209524,12.7243216 C16.1161905,12.9712563 17.2571429,12.9203015 17.9485714,12.1520603 C18.9619048,10.9801005 17.5809524,9.32603015 17.5352381,9.18688442 Z M11.5733333,12.261809 C10.9428571,12.5557789 8.90666667,16.6360804 10.6209524,18.3038693 C11.7333333,19.3856784 13.3695238,17.9785427 13.4895238,17.9119095 C13.6095238,17.8452764 15.7580952,17.9275879 15.9657143,16.3440704 C16.3180952,13.9629146 12.2495238,12.0854271 11.5733333,12.261809 Z M11.0780952,10.7939196 C11.7085714,10.4999497 13.7447619,6.42160804 12.0304762,4.7518593 C10.9180952,3.67201005 9.28190476,5.07718593 9.14666667,5.1438191 C9.01142857,5.21045226 6.87809524,5.1281407 6.67047619,6.71165829 C6.33142857,9.07909548 10.4171429,10.9644221 11.0780952,10.7939196 Z M10.5828571,11.7738191 C10.2971429,11.1251256 6.33142857,9.0301005 4.71047619,10.7939196 C3.65904762,11.9384422 5.0247619,13.6219095 5.09142857,13.7453769 C5.15809524,13.8688442 5.07619048,16.0794975 6.6152381,16.2931156 C8.92952381,16.6360804 10.7466667,12.4479899 10.5828571,11.7679397 L10.5828571,11.7738191 Z M7.11238095,18.0628141 L7.92380952,18.8976884 C8.69848781,18.0519727 9.22020838,16.9947103 9.42666667,15.8521608 C9.36571429,15.8384422 8.99047619,15.791407 8.9447619,15.7757286 C8.60169045,16.7271106 7.9558895,17.5310947 7.11238095,18.0569347 L7.11238095,18.0628141 Z" id="Shape" fill="#FFFFFF"></path>
            <polygon id="Rectangle" fill="#E1001A" transform="translate(13.930798, 10.505682) rotate(-64.380000) translate(-13.930798, -10.505682) " points="12.3575086 8.96050926 15.5391068 8.92548935 15.5040869 12.0508545 12.3224887 12.0858744"></polygon>
            <polygon id="Rectangle" fill="#A70000" transform="translate(14.529216, 9.236829) rotate(-64.380000) translate(-14.529216, -9.236829) " points="14.3624973 7.67617419 14.7309545 7.67211858 14.6959346 10.7974838 14.3274774 10.8015394"></polygon>
            <polygon id="Rectangle" fill="#A70000" transform="translate(12.704078, 9.907977) rotate(-64.380000) translate(-12.704078, -9.907977) " points="11.1153923 9.73685388 14.2969905 9.70183396 14.2927632 10.0790992 11.111165 10.1141192"></polygon>
        </g>
        <path d="M28.1106762,19.3541857 L31.0818236,19.3541857 L31.0818236,17.5083076 L28.1106762,17.5083076 L28.1106762,16.1956832 L31.7344367,16.1956832 L31.7344367,14.2382321 L26,14.2382321 L26,22.7702907 L31.9774473,22.7702907 L31.9774473,20.8144804 L28.1106762,20.8144804 L28.1106762,19.3541857 Z M37.3022814,19.2376903 C37.3022814,20.20411 36.9140759,20.8407329 36.0031686,20.8407329 C35.0647506,20.8407329 34.6903005,20.1844206 34.6903005,19.2376903 L34.6903005,14.2382321 L32.5780959,14.2382321 L32.5780959,19.4526325 C32.5780959,21.3362486 33.6632372,23 36.0138671,23 C38.5188623,23 39.4389398,21.0737237 39.4389398,19.4526325 L39.4389398,14.2382321 L37.2992246,14.2382321 L37.3022814,19.2376903 Z M46.86528,17.0357629 C46.86528,15.4917884 46.0109222,14.2300282 44.0362708,14.2300282 L40.4048684,14.2300282 L40.4048684,22.7702907 L42.4696936,22.7702907 L42.4696936,19.8661092 L43.692388,19.8661092 L45.0388802,22.7702907 L47.3054499,22.7702907 L45.5997912,19.4887297 C46.3700887,18.9964956 46.86528,18.1990762 46.86528,17.0357629 Z M43.8345262,18.0858624 L42.4712219,18.0858624 L42.4712219,16.0234013 L43.8222993,16.0234013 C44.4336465,16.0234013 44.7775293,16.3761691 44.7775293,17.0735008 C44.7939177,17.3473018 44.6996248,17.6154084 44.5187644,17.809257 C44.3379039,18.0031057 44.0880134,18.1038996 43.8329978,18.0858624 L43.8345262,18.0858624 Z M51.5344442,14.0003189 C49.0080519,14.0003189 47.3940953,15.9987896 47.3940953,18.4829313 C47.3940953,20.8981602 48.8903676,22.9786699 51.5344442,22.9786699 C54.095989,22.9786699 55.6732647,20.8210435 55.6732647,18.4829313 C55.6717364,16.0430906 54.025684,14.0003189 51.5329158,14.0003189 L51.5344442,14.0003189 Z M51.5344442,20.8522183 C50.4156788,20.8522183 49.5766048,19.9415851 49.5766048,18.4829313 C49.5766048,17.0587338 50.3912249,16.1136442 51.5344442,16.1136442 C52.8075747,16.1136442 53.4892269,17.2392196 53.4892269,18.4829313 C53.4876985,19.9399444 52.6730784,20.8522183 51.5329158,20.8522183 L51.5344442,20.8522183 Z M88.9473645,14.0003189 C86.4209722,14.0003189 84.8070156,15.9987896 84.8070156,18.4829313 C84.8070156,20.8981602 86.3048162,22.9786699 88.9473645,22.9786699 C91.5089093,22.9786699 93.0877134,20.8210435 93.0877134,18.4829313 C93.086185,16.0430906 91.4401327,14.0003189 88.9458361,14.0003189 L88.9473645,14.0003189 Z M88.9473645,20.8522183 C87.8301275,20.8522183 86.9895251,19.9415851 86.9895251,18.4829313 C86.9895251,17.0587338 87.8041452,16.1136442 88.9473645,16.1136442 C90.220495,16.1136442 90.9036755,17.2392196 90.9036755,18.4829313 C90.9021472,19.9399444 90.0844703,20.8522183 88.9458361,20.8522183 L88.9473645,20.8522183 Z M62.5142399,14.2382321 L60.620592,17.9578815 L58.6856781,14.2382321 L56.6682323,14.2382321 L56.2983673,22.7702907 L58.32804,22.7702907 L58.4808768,17.7626286 L60.0306419,20.6815771 L61.1891449,20.6815771 L62.5860732,17.7626286 L62.7771192,22.7702907 L64.9168344,22.7702907 L64.5423843,14.2382321 L62.5142399,14.2382321 Z M65.8323268,22.7702907 L67.9445314,22.7702907 L67.9445314,14.2382321 L65.8323268,14.2382321 L65.8323268,22.7702907 Z M71.1296503,14.2382321 L69.0174458,14.2382321 L69.0174458,22.7702907 L74.6234996,22.7702907 L74.6234996,20.7751016 L71.1296503,20.7751016 L71.1296503,14.2382321 Z M77.5273988,14.2382321 L75.4151942,14.2382321 L75.4151942,22.7702907 L81.021248,22.7702907 L81.021248,20.7751016 L77.5273988,20.7751016 L77.5273988,14.2382321 Z M81.8297547,22.7702907 L83.9419593,22.7702907 L83.9419593,14.2382321 L81.8297547,14.2382321 L81.8297547,22.7702907 Z M98.829792,18.9964956 L95.773056,14.2382321 L93.8564825,14.2382321 L93.8564825,22.7702907 L95.9457616,22.7702907 L95.9457616,17.8692793 L99.1186535,22.7702907 L100.920599,22.7702907 L100.920599,14.2382321 L98.829792,14.2382321 L98.829792,18.9964956 Z M104.099605,16.3449943 C104.099605,15.9791002 104.348729,15.8051775 104.845448,15.8051775 C105.420115,15.8051775 106.280586,16.1759939 106.77272,16.5615773 L107.86856,15.0208844 C107.031763,14.3465283 106.010926,13.9877586 104.964661,14.0003189 C102.740886,14.0003189 101.869716,15.3424774 101.869716,16.6255677 C101.869716,19.2885545 105.657012,19.2344087 105.657012,20.3484987 C105.657012,20.7980726 105.198501,21.0277818 104.739991,21.0277818 C103.969288,20.9988525 103.236776,20.6604065 102.687393,20.0794107 L101.475397,21.7316767 C102.2029,22.4798726 103.323194,22.9868738 104.776672,22.9868738 C106.615299,22.9786699 108,21.6217444 108,20.1450419 C108,17.378686 104.101133,17.5526087 104.101133,16.3433535 L104.099605,16.3449943 Z" id="EUML" fill="#001367"></path>
        <path d="M86.4874256,24 L90.3442638,26.7549044 L90.3442638,24.2666998 L92,24.2666998 L92,30 L88.1431618,27.2391358 L88.1431618,29.7333002 L86.4874256,29.7333002 L86.4874256,24 Z M82.6411624,24.0610877 C84.5476762,24.0610877 85.8695459,25.2649615 85.8695459,27.000745 C85.8695459,28.7365284 84.5491869,29.9404023 82.6411624,29.9404023 C80.7331378,29.9404023 79.4112681,28.7365284 79.4112681,27.000745 C79.4112681,25.2649615 80.7331378,24.0610877 82.6411624,24.0610877 Z M47.0383009,24 L47.0383009,29.7333002 L45.3825646,29.7333002 L45.3825646,27.5296747 L44.0199058,28.7663273 L42.6557362,27.5296747 L42.6557362,29.7333002 L41,29.7333002 L41,24 L44.0199058,26.6640179 L47.0383009,24 Z M49.305874,24.2681897 L50.4948014,26.0412218 L51.6852395,24.2681897 L53.5826891,24.2681897 L51.3120946,27.6548299 L51.3120946,29.7333002 L49.6563583,29.7333002 L49.6563583,27.6205612 L47.4084244,24.2681897 L49.305874,24.2681897 Z M62.3432862,24 L62.3432862,29.7333002 L60.68755,29.7333002 L60.68755,27.5296747 L59.3248911,28.7663273 L57.9607216,27.5296747 L57.9607216,29.7333002 L56.3049853,29.7333002 L56.3049853,24 L59.3248911,26.6640179 L62.3432862,24 Z M65.1834178,24.2681897 L65.1834178,29.7333002 L63.5276815,29.7333002 L63.5276815,24.2681897 L65.1834178,24.2681897 Z M68.1867058,24.2681897 L68.1867058,28.3580829 L70.9467698,28.3580829 L70.9467698,29.7333002 L66.5309695,29.7333002 L66.5309695,24.2681897 L68.1867058,24.2681897 Z M73.4092242,24.2681897 L73.4092242,28.3580829 L76.1692882,28.3580829 L76.1692882,29.7333002 L71.753488,29.7333002 L71.753488,24.2681897 L73.4092242,24.2681897 Z M78.6574247,24.2681897 L78.6574247,29.7333002 L77.0016884,29.7333002 L77.0016884,24.2681897 L78.6574247,24.2681897 Z M82.6411624,25.56593 C81.7407802,25.56593 81.1168577,26.1529675 81.1168577,27.000745 C81.1168577,27.8014237 81.6679911,28.3695288 82.4928197,28.4301804 L82.6411624,28.43556 C83.5415445,28.4430097 84.1715098,27.8485225 84.1715098,27.000745 C84.1715098,26.1529675 83.5415445,25.56593 82.6411624,25.56593 Z" id="MYMI" fill="#EEBB05"></path>
        <path d="M59.3698007,0.0759484941 L62.7987292,3.01876691 C62.9892883,3.16903998 63.234405,3.22096436 63.4656524,3.1600448 L67.6827629,1.76987038 C67.8848608,1.70346977 67.9872571,1.81790486 67.9104599,2.02558335 L66.3058022,6.35575064 C66.2334502,6.59265978 66.2639926,6.85093618 66.389336,7.06214008 L68.9398121,10.8342597 C69.0637655,11.0150954 68.9896629,11.1535477 68.7781337,11.1408327 L64.3697039,10.8766431 C64.1322776,10.8772701 63.9071185,10.9873116 63.7539788,11.177565 L61.1064957,14.8861095 C60.9798477,15.0641197 60.8370318,15.0273874 60.7777497,14.8182962 L59.6554325,10.3369615 C59.5815417,10.0993948 59.4114524,9.90811767 59.1906072,9.81423334 L55.0058324,8.32798996 C54.8050818,8.25593823 54.7862193,8.09911978 54.9654128,7.98044635 L58.6907516,5.4883044 C58.882746,5.341577 59.0034683,5.11371938 59.0208449,4.86526891 L59.0666538,0.217226383 C59.0666538,-0.00457990233 59.2013858,-0.0653293944 59.3698007,0.0759484941 Z M51.3963631,8.99482159 L52.1562514,9.67719379 C52.1983759,9.7111107 52.2531319,9.72259396 52.3044566,9.70827493 L53.2381491,9.38616134 C53.2839579,9.37062077 53.3068624,9.39746357 53.2893472,9.44549806 L52.9336548,10.4471583 C52.9166781,10.5020389 52.9235762,10.5619711 52.9525173,10.6110406 L53.5170442,11.4827252 C53.5453379,11.5251086 53.5291701,11.5576025 53.4820139,11.5547769 L52.5025125,11.4912019 C52.4500182,11.4921164 52.4006369,11.5174888 52.3677806,11.560428 L51.7816965,12.4193976 C51.7534028,12.4603682 51.7210672,12.4533043 51.7089413,12.403857 L51.4596872,11.3668773 C51.4448332,11.3122247 51.4071887,11.2675574 51.3572909,11.2453784 L50.430335,10.9020731 C50.3845261,10.8851197 50.3804841,10.8498003 50.4209037,10.8215447 L51.2468107,10.2451309 C51.2890202,10.2109422 51.3154534,10.1596136 51.3195659,10.103853 L51.3303445,9.02872828 C51.3303445,8.97786824 51.3599855,8.96232768 51.3963631,8.99482159 Z M43.3865479,7.79819788 L44.1733826,8.50458732 C44.2166976,8.53931953 44.2728136,8.55129631 44.3256297,8.53708123 L45.2943525,8.20507819 C45.3401614,8.18812485 45.3644131,8.21638043 45.346898,8.26582769 L44.9777324,9.30139461 C44.9613122,9.35836071 44.9686545,9.41995305 44.9979422,9.47092808 L45.5826789,10.3736938 C45.6109726,10.4174899 45.5948048,10.4499838 45.5463013,10.4471583 L44.5344642,10.3835832 C44.4789479,10.3838575 44.4264978,10.410319 44.3916484,10.455635 L43.7853545,11.3428601 C43.7570608,11.3852435 43.7220305,11.3781796 43.7099046,11.3273195 L43.4525666,10.2536076 C43.4361756,10.1978132 43.3972678,10.1523671 43.3461283,10.129283 L42.3854894,9.77326276 C42.3383332,9.75630941 42.3342913,9.71957716 42.3760582,9.6899088 L43.2302588,9.09371611 C43.2751354,9.0582625 43.3031499,9.00414957 43.3070561,8.94537433 L43.3178346,7.83351735 C43.3178346,7.77983175 43.348823,7.76429118 43.3865479,7.79819788 Z M47.6548565,6.54223745 L48.1816585,7.01975671 C48.2107743,7.0431412 48.248419,7.05145145 48.2840548,7.04236117 L48.9321155,6.81631655 C48.9631039,6.8064271 48.9792717,6.82479322 48.9671458,6.85869992 L48.7205863,7.56508936 C48.7089489,7.60330941 48.7133575,7.64491528 48.7327122,7.67952445 L49.1261295,8.28984493 C49.144992,8.31951328 49.1328661,8.34211775 49.1005305,8.33929219 L48.4228287,8.28560659 C48.385796,8.28593315 48.3509851,8.30418427 48.3285163,8.33505385 L47.9243204,8.93548488 C47.905458,8.96374046 47.8825535,8.95950212 47.8744696,8.92418265 L47.6979707,8.20366542 C47.686454,8.16701339 47.6611402,8.13689655 47.6279101,8.12031146 L46.9838913,7.87872627 C46.952903,7.86742404 46.9502083,7.84199402 46.9771547,7.82221512 L47.5497656,7.41957314 C47.5798176,7.39481521 47.5984285,7.3578393 47.6009637,7.31785306 L47.6077003,6.56625469 C47.6077003,6.53093522 47.6292574,6.51963299 47.6548565,6.54223745 Z M39.6356101,6.11416545 L40.1139085,6.54788856 C40.1401352,6.56960584 40.1746488,6.57694883 40.2068736,6.56766747 L40.7889157,6.36705287 C40.8172094,6.35716341 40.8320299,6.36705287 40.8212513,6.4051979 L40.5975963,7.04094839 C40.5873813,7.07540453 40.5912856,7.11276274 40.6083748,7.14408125 L40.9640672,7.69789058 C40.9815824,7.72473337 40.9708038,7.74592506 40.9425101,7.7430995 L40.326785,7.70071613 C40.2930523,7.7015536 40.2614352,7.7181302 40.2405566,7.74592506 L39.8727383,8.28984493 C39.8552232,8.31668773 39.833666,8.31103661 39.8269294,8.27995548 L39.6706404,7.62160052 C39.6603392,7.58772651 39.636843,7.560009 39.605969,7.54531046 L39.0212323,7.32632973 C38.9942859,7.31644028 38.9915913,7.29383581 39.0212323,7.27546969 L39.5412977,6.90955996 C39.5683817,6.88784128 39.5851048,6.85483309 39.5871065,6.81914211 L39.5938431,6.13676991 C39.5938431,6.10427599 39.6127056,6.09438654 39.6356101,6.11416545 Z M50.4128198,0.844500207 L51.7345404,2.01851946 C51.8078573,2.07701676 51.9027919,2.09682192 51.9918784,2.07220506 L53.6207878,1.51980851 C53.6989324,1.49296572 53.739352,1.53817464 53.7083636,1.62152859 L53.0885966,3.34370605 C53.0600659,3.43837922 53.0718504,3.54135465 53.1209323,3.62626183 L54.1071702,5.12663301 C54.1543264,5.20009751 54.1260327,5.25378311 54.0438462,5.24954477 L52.3489181,5.14358635 C52.2563068,5.14423654 52.1688272,5.18828758 52.1104425,5.26367256 L51.0905216,6.74002649 C51.0406707,6.81066544 50.9840833,6.79795043 50.9557896,6.71318369 L50.5233,4.93025674 C50.4953742,4.83690274 50.4299054,4.7610269 50.3441065,4.72257824 L48.7273229,4.13062389 C48.6505257,4.10236831 48.6424418,4.04020604 48.7125024,3.989346 L50.1500925,3.00040078 C50.225165,2.94156339 50.2719307,2.85123069 50.2780878,2.75316448 L50.295603,0.90383692 C50.295603,0.814831851 50.3494958,0.789401831 50.4128198,0.844500207 Z" id="Étoiles" fill="url(#linearGradient-2)" fill-rule="nonzero"></path>
    </g>
</svg>